grf
version=1
nRows=7
nColumns=37
inDegrees=no
endheader
time	ground_force_1_vx	ground_force_1_vy	ground_force_1_vz	ground_force_1_px	ground_force_1_py	ground_force_1_pz	ground_moment_1_mx	ground_moment_1_my	ground_moment_1_mz	ground_force_2_vx	ground_force_2_vy	ground_force_2_vz	ground_force_2_px	ground_force_2_py	ground_force_2_pz	ground_moment_2_mx	ground_moment_2_my	ground_moment_2_mz	ground_force_3_vx	ground_force_3_vy	ground_force_3_vz	ground_force_3_px	ground_force_3_py	ground_force_3_pz	ground_moment_3_mx	ground_moment_3_my	ground_moment_3_mz	ground_force_4_vx	ground_force_4_vy	ground_force_4_vz	ground_force_4_px	ground_force_4_py	ground_force_4_pz	ground_moment_4_mx	ground_moment_4_my	ground_moment_4_mz
      4.09000000	      0.00000000	     -0.00000000	      0.00000000	      0.00000000	      0.00000000	      0.00000000	      0.00000000	      0.00000000	      0.00000000	     -7.28298140	     37.43476868	   -413.09274292	   -268.77195419	  -1111.03773106	      0.00000000	      0.00000000	      0.00000000	   5090.48863129	      8.52039195	    -38.03030470	   -407.09442139	   -249.38031271	   -666.15555490	      0.00000000	      0.00000000	     -0.00000000	  -1085.17868118	      0.00000000	     -0.00000000	      0.00000000	      0.00000000	      0.00000000	      0.00000000	      0.00000000	      0.00000000	      0.00000000
      4.10000000	      0.00000000	     -0.00000000	      0.00000000	      0.00000000	      0.00000000	      0.00000000	      0.00000000	      0.00000000	      0.00000000	     -7.47242117	     37.39900970	   -412.27392578	   -269.06395906	  -1110.97815090	      0.00000000	      0.00000000	      0.00000000	   4985.15609273	      9.05247449	    -38.33557590	   -409.34817505	   -249.32082961	   -664.63662609	      0.00000000	      0.00000000	     -0.00000000	  -1082.15664648	      0.00000000	     -0.00000000	      0.00000000	      0.00000000	      0.00000000	      0.00000000	      0.00000000	      0.00000000	      0.00000000
      4.11000000	      0.00000000	     -0.00000000	      0.00000000	      0.00000000	      0.00000000	      0.00000000	      0.00000000	      0.00000000	      0.00000000	     -7.73272705	     37.28162766	   -411.32778931	   -268.60840505	  -1111.11900651	      0.00000000	      0.00000000	      0.00000000	   4980.57828357	      9.46374554	    -38.80518042	   -408.29953003	   -248.98027380	   -664.63348688	      0.00000000	      0.00000000	     -0.00000000	  -1011.97806868	      0.00000000	     -0.00000000	      0.00000000	      0.00000000	      0.00000000	      0.00000000	      0.00000000	      0.00000000	      0.00000000
      4.12000000	      0.00000000	     -0.00000000	      0.00000000	      0.00000000	      0.00000000	      0.00000000	      0.00000000	      0.00000000	      0.00000000	     -8.17548656	     37.34564209	   -411.66885376	   -268.22202406	  -1110.82277145	      0.00000000	      0.00000000	      0.00000000	   4961.10873850	      9.81138470	    -37.97478189	   -408.39569092	   -248.37526703	   -665.14438781	      0.00000000	      0.00000000	     -0.00000000	  -1152.18065144	      0.00000000	     -0.00000000	      0.00000000	      0.00000000	      0.00000000	      0.00000000	      0.00000000	      0.00000000	      0.00000000
      4.13000000	      0.00000000	     -0.00000000	      0.00000000	      0.00000000	      0.00000000	      0.00000000	      0.00000000	      0.00000000	      0.00000000	     -8.86359882	     36.81388474	   -413.22052002	   -267.86606255	  -1112.02545078	      0.00000000	      0.00000000	      0.00000000	   4986.56035821	      9.69791553	    -38.41656960	   -407.80908203	   -248.02593376	   -664.91669087	      0.00000000	      0.00000000	     -0.00000000	  -1128.68063210	      0.00000000	     -0.00000000	      0.00000000	      0.00000000	      0.00000000	      0.00000000	      0.00000000	      0.00000000	      0.00000000
      4.14000000	      0.00000000	     -0.00000000	      0.00000000	      0.00000000	      0.00000000	      0.00000000	      0.00000000	      0.00000000	      0.00000000	     -8.89504623	     37.32245636	   -413.10650635	   -267.58594733	  -1110.62791214	      0.00000000	      0.00000000	      0.00000000	   5097.74772394	      8.99460458	    -38.27795870	   -408.60726929	   -248.32404213	   -664.25408176	      0.00000000	      0.00000000	     -0.00000000	  -1119.89367392	      0.00000000	     -0.00000000	      0.00000000	      0.00000000	      0.00000000	      0.00000000	      0.00000000	      0.00000000	      0.00000000
      4.15000000	      0.00000000	     -0.00000000	      0.00000000	      0.00000000	      0.00000000	      0.00000000	      0.00000000	      0.00000000	      0.00000000	     -8.83968735	     37.40332031	   -414.86178589	   -268.03273398	  -1111.90913303	      0.00000000	      0.00000000	      0.00000000	   5107.20069168	      9.26043271	    -38.33456883	   -407.57244873	   -248.06525302	   -665.78142641	      0.00000000	      0.00000000	     -0.00000000	  -1097.50426633	      0.00000000	     -0.00000000	      0.00000000	      0.00000000	      0.00000000	      0.00000000	      0.00000000	      0.00000000	      0.00000000
